<svg xmlns="http://www.w3.org/2000/svg" xmlns:xlink="http://www.w3.org/1999/xlink" version="1.1" x="0px" y="0px" viewBox="0 0 100 125" enable-background="new 0 0 100 100" xml:space="preserve"><g><path d="M53.968,60.61v3.375c0,0.562,0.447,1.018,1,1.018s1-0.456,1-1.018V60.61h2.363c1.497,0,2.716-1.241,2.716-2.766v-2.401   h3.314c0.553,0,1-0.456,1-1.018s-0.447-1.018-1-1.018h-3.314v-2.296h3.314c0.553,0,1-0.456,1-1.018c0-0.562-0.447-1.018-1-1.018   h-3.314V46.78h3.314c0.553,0,1-0.456,1-1.018c0-0.562-0.447-1.018-1-1.018h-3.314v-2.279c0-1.525-1.219-2.766-2.716-2.766h-2.363   v-3.375c0-0.562-0.447-1.018-1-1.018s-1,0.456-1,1.018V39.7h-2.255v-3.375c0-0.562-0.447-1.018-1-1.018s-1,0.456-1,1.018V39.7   h-2.254v-3.375c0-0.562-0.447-1.018-1-1.018s-1,0.456-1,1.018V39.7h-2.362c-1.498,0-2.717,1.241-2.717,2.766v2.836h-3.314   c-0.553,0-1,0.456-1,1.018c0,0.562,0.447,1.018,1,1.018h3.314v2.294h-3.314c-0.553,0-1,0.456-1,1.018s0.447,1.018,1,1.018h3.314   v2.296h-3.314c-0.553,0-1,0.456-1,1.018c0,0.562,0.447,1.018,1,1.018h3.314v1.843c0,1.525,1.219,2.766,2.717,2.766h2.362v3.375   c0,0.562,0.447,1.018,1,1.018s1-0.456,1-1.018V60.61h2.254v3.375c0,0.562,0.447,1.018,1,1.018s1-0.456,1-1.018V60.61H53.968z    M42.38,57.844V42.465c0-0.402,0.321-0.73,0.717-0.73h15.234c0.395,0,0.716,0.328,0.716,0.73v15.379c0,0.402-0.321,0.73-0.716,0.73   H43.097C42.701,58.574,42.38,58.247,42.38,57.844z"/><path d="M57.428,56.082V44.447c0-0.562-0.447-1.018-1-1.018H44.999c-0.553,0-1,0.456-1,1.018v11.635c0,0.562,0.447,1.018,1,1.018   h11.429C56.98,57.1,57.428,56.644,57.428,56.082z M55.428,55.063h-9.429v-9.599h9.429V55.063z"/><path d="M90.651,64.883l-0.009-12.552c0-0.562-0.448-1.017-1-1.017h-5.636c0.094-0.536,0.146-1.088,0.146-1.652   c0-0.047-0.005-0.094-0.006-0.141c0-0.01,0.006-0.019,0.006-0.03c0-3.709-2.189-6.885-5.278-8.19   c-0.497-0.222-1.016-0.401-1.556-0.521c1.41-1.639,2.207-3.773,2.207-6.064c0-0.611-0.06-1.208-0.17-1.786h6.328   c0.553,0,1-0.456,1-1.018V18.167c1.67-0.449,2.916-1.984,2.924-3.823c0.008-2.195-1.741-3.989-3.911-3.999   c-2.149,0-3.906,1.78-3.915,3.969c-0.007,1.843,1.23,3.388,2.902,3.847v12.732h-5.971c-1.04-2.344-2.997-4.146-5.39-4.886   l-0.012-7.688c1.671-0.449,2.917-1.984,2.925-3.822c0.008-2.196-1.741-3.991-3.912-4c-2.15,0-3.905,1.781-3.913,3.969   c-0.005,1.064,0.398,2.066,1.134,2.82c0.495,0.508,1.105,0.848,1.767,1.027l0.012,7.343c-0.144-0.007-0.285-0.023-0.431-0.023   c-0.523,0-1.046,0.057-1.562,0.159c-0.305-4.58-3.936-8.212-8.366-8.212c-0.024,0-0.046,0.013-0.069,0.014   c-0.096-0.003-0.189-0.014-0.285-0.014c-4.6,0-8.634,4.521-8.634,9.675v5.614c0,0.562,0.447,1.018,1,1.018s1-0.456,1-1.018v-5.614   c0-4.07,3.1-7.639,6.634-7.639c3.658,0,6.635,3.16,6.635,7.044c0,0.113-0.009,0.224-0.016,0.334l-0.008,0.106   c-0.009,0.13,0.015,0.255,0.053,0.375c-0.483,3.239-3.125,5.727-6.31,5.727c-0.553,0-1,0.456-1,1.018c0,0.562,0.447,1.018,1,1.018   c4.137,0,7.576-3.165,8.264-7.311c0.551-0.154,1.106-0.259,1.665-0.259c3.657,0,6.633,3.161,6.633,7.045   c0,2.507-1.219,4.771-3.261,6.055c-0.021,0.013-0.034,0.034-0.054,0.049c-3.894,0.766-6.851,4.359-6.851,8.671   c0,0.562,0.447,1.018,1,1.018s1-0.456,1-1.018c0-3.745,2.869-6.792,6.396-6.792c0.843,0,1.646,0.178,2.382,0.494   c2.358,1.082,4.014,3.574,4.014,6.47c0,3.883-2.976,7.043-6.634,7.043c-0.177,0-0.351-0.013-0.523-0.028   c-0.452-0.049-0.884,0.241-1.033,0.685c-0.148,0.442,0.019,0.931,0.405,1.185c1.927,1.263,3.088,3.423,3.146,5.804   c-0.02,0.08-0.048,0.157-0.048,0.244c0,3.747-2.87,6.794-6.397,6.794c-3.526,0-6.395-3.048-6.395-6.794   c0-0.562-0.447-1.018-1-1.018s-1,0.456-1,1.018c0,3.299,1.731,6.177,4.286,7.692c0.049,0.166,0.094,0.308,0.134,0.429   c0.118,0.365,0.15,0.463,0.15,0.932c0,3.884-2.977,7.045-6.635,7.045s-6.634-3.161-6.634-7.045c0-0.053-0.021-0.098-0.029-0.148   c0.008-0.05,0.029-0.095,0.029-0.148v-5.36c0-0.562-0.447-1.018-1-1.018s-1,0.456-1,1.018v5.36c0,0.053,0.021,0.098,0.029,0.148   c-0.008,0.05-0.029,0.095-0.029,0.148c0,4.351,2.926,7.993,6.815,8.875v3.324c0,0.562,0.447,1.018,0.999,1.018l15.422,0.01   c0.45,1.696,1.963,2.956,3.767,2.956h0.013c2.157-0.01,3.906-1.804,3.898-4c-0.009-2.188-1.765-3.967-3.928-3.967   c-1.808,0.008-3.314,1.275-3.755,2.976l-14.416-0.01v-2.11c4.677-0.103,8.453-4.128,8.453-9.071c0-0.068-0.001-0.133-0.002-0.195   c0.54,0.11,1.092,0.165,1.65,0.165c4.76,0,8.633-4.072,8.633-9.079c0-2.256-0.78-4.373-2.161-6.007   c2.704-0.622,4.935-2.582,6.039-5.182h5.24l0.008,11.524c-1.669,0.449-2.914,1.983-2.922,3.821c-0.008,2.196,1.74,3.991,3.896,4   h0.015c2.149,0,3.906-1.781,3.915-3.971C93.562,66.886,92.328,65.344,90.651,64.883z M83.781,14.323   c0.005-1.07,0.863-1.941,1.92-1.941c1.055,0.004,1.91,0.882,1.906,1.955c-0.005,1.07-0.862,1.94-1.913,1.94v0.387   c-0.001,0-0.003-0.001-0.004-0.001l-0.003-0.386C84.633,16.272,83.777,15.396,83.781,14.323z M70.411,14.474   c0.004-1.07,0.862-1.941,1.918-1.941c1.056,0.004,1.911,0.882,1.907,1.956c-0.005,1.069-0.863,1.939-1.915,1.939v0.002   c-0.002,0-0.005-0.001-0.007-0.001v-0.001c-0.511-0.002-0.99-0.206-1.35-0.575C70.605,15.484,70.409,14.994,70.411,14.474z    M78.977,83.897c1.051,0,1.908,0.871,1.913,1.939c0.004,1.074-0.852,1.952-1.905,1.956l-0.006,1.018v-1.018   c-1.052,0-1.91-0.871-1.915-1.94C77.06,84.779,77.915,83.902,78.977,83.897z M89.641,70.659v1.018l-0.007-1.018   c-1.054-0.004-1.908-0.882-1.904-1.956c0.005-1.069,0.861-1.938,1.919-1.938c1.055,0.004,1.91,0.88,1.907,1.952   C91.551,69.788,90.692,70.659,89.641,70.659z"/><path d="M49.354,66.945c-0.553,0-1,0.456-1,1.018v5.36c0,0.052,0.021,0.098,0.029,0.148c-0.008,0.05-0.029,0.096-0.029,0.148   c0,3.884-2.976,7.045-6.634,7.045s-6.635-3.161-6.635-7.045c0-0.468,0.032-0.566,0.15-0.932c0.04-0.121,0.085-0.263,0.134-0.429   c2.555-1.516,4.286-4.393,4.286-7.692c0-0.562-0.447-1.018-1-1.018s-1,0.456-1,1.018c0,3.747-2.868,6.794-6.395,6.794   c-3.527,0-6.397-3.048-6.397-6.794c0-0.086-0.028-0.164-0.048-0.244c0.059-2.381,1.22-4.541,3.146-5.804   c0.387-0.253,0.554-0.742,0.405-1.185c-0.148-0.444-0.578-0.728-1.033-0.685c-0.173,0.015-0.347,0.028-0.523,0.028   c-3.658,0-6.634-3.16-6.634-7.043c0-2.896,1.655-5.388,4.014-6.47c0.736-0.315,1.54-0.494,2.382-0.494   c3.527,0,6.396,3.047,6.396,6.792c0,0.562,0.447,1.018,1,1.018s1-0.456,1-1.018c0-4.312-2.958-7.906-6.851-8.672   c-0.02-0.014-0.033-0.035-0.054-0.048c-2.042-1.285-3.261-3.548-3.261-6.055c0-3.884,2.976-7.045,6.633-7.045   c0.559,0,1.114,0.105,1.665,0.259c0.688,4.146,4.127,7.311,8.264,7.311c0.553,0,1-0.456,1-1.018c0-0.562-0.447-1.018-1-1.018   c-3.186,0-5.826-2.487-6.31-5.727c0.038-0.12,0.062-0.245,0.053-0.375l-0.008-0.106c-0.007-0.11-0.016-0.221-0.016-0.334   c0-3.884,2.977-7.044,6.635-7.044c3.534,0,6.634,3.569,6.634,7.639v5.614c0,0.562,0.447,1.018,1,1.018s1-0.456,1-1.018v-5.614   c0-4.46-3.021-8.439-6.815-9.433v-3.724c0-0.562-0.447-1.018-0.999-1.018l-11.423-0.01c-0.45-1.696-1.964-2.956-3.778-2.956   c-2.157,0.009-3.906,1.803-3.898,4c0.009,2.188,1.765,3.967,3.913,3.967h0.015c1.808-0.008,3.314-1.275,3.755-2.976l10.416,0.009   v2.474c-0.034,0-0.068,0.004-0.104,0.005c-0.024-0.001-0.045-0.014-0.069-0.014c-4.431,0-8.062,3.632-8.366,8.212   c-0.517-0.103-1.039-0.159-1.562-0.159c-4.76,0-8.633,4.074-8.633,9.081c0,0.208,0.014,0.415,0.027,0.62h-8.015V23.978   c1.672-0.459,2.909-2.004,2.902-3.848c-0.009-2.188-1.766-3.968-3.928-3.968c-2.157,0.01-3.906,1.804-3.898,4   C9.9,22,11.146,23.536,12.816,23.984v12.341c0,0.562,0.447,1.018,1,1.018h9.365c0.365,1.264,0.984,2.426,1.829,3.408   c-0.538,0.12-1.056,0.298-1.552,0.519c-3.091,1.304-5.282,4.481-5.282,8.192c0,0.011,0.006,0.02,0.006,0.03   c-0.001,0.047-0.006,0.094-0.006,0.141c0,0.314,0.02,0.624,0.05,0.931h-2.067c-0.401-1.758-1.941-3.079-3.801-3.087   c-2.149,0-3.906,1.78-3.915,3.971c-0.007,2.195,1.743,3.988,3.899,3.996h0.017c1.762,0,3.242-1.205,3.728-2.843h2.567   c0.976,2.957,3.361,5.225,6.311,5.903c-1.381,1.634-2.161,3.751-2.161,6.007c0,5.006,3.873,9.079,8.633,9.079   c0.559,0,1.11-0.055,1.65-0.165c-0.001,0.062-0.002,0.126-0.002,0.195c0,0.213,0.017,0.422,0.03,0.631l-6.387-0.004   c-0.013,0-0.023-0.007-0.036-0.007s-0.023,0.007-0.036,0.007l-10.042-0.007c-0.45-1.694-1.963-2.952-3.777-2.952   c-2.156,0.008-3.906,1.8-3.899,3.997c0.009,2.188,1.766,3.969,3.915,3.969h0.015c1.808-0.008,3.312-1.276,3.753-2.978l9.072,0.006   v5.865c-1.726,0.409-3.024,1.977-3.032,3.855c-0.008,2.196,1.741,3.991,3.9,4h0.012c2.15,0,3.905-1.781,3.913-3.969   c0.005-1.064-0.398-2.066-1.134-2.82c-0.467-0.479-1.038-0.804-1.659-0.993v-5.937l5.774,0.004   c1.086,3.709,4.375,6.413,8.253,6.413c4.761,0,8.634-4.074,8.634-9.081c0-0.052-0.021-0.098-0.029-0.148   c0.008-0.05,0.029-0.096,0.029-0.148v-5.36C50.354,67.401,49.906,66.945,49.354,66.945z M27.359,16.019l-0.007,1.018v-1.018   c-1.051,0-1.908-0.87-1.913-1.939c-0.004-1.074,0.852-1.952,1.911-1.956c1.052,0,1.91,0.871,1.915,1.94   C29.27,15.138,28.414,16.015,27.359,16.019z M11.893,20.154c-0.004-1.074,0.852-1.952,1.911-1.956c1.052,0,1.91,0.871,1.915,1.94   c0.004,1.074-0.852,1.951-1.906,1.955v0.001c-0.002,0-0.005,0.001-0.007,0.001v-0.002C12.755,22.094,11.897,21.223,11.893,20.154z    M12.359,53.407v1.018l-0.009-1.018c-1.055-0.004-1.91-0.88-1.907-1.952c0.005-1.071,0.863-1.942,1.922-1.942   c1.054,0.004,1.908,0.882,1.904,1.956C14.265,52.538,13.408,53.407,12.359,53.407z M28.485,86.025   c-0.004,1.07-0.862,1.941-1.913,1.941v1.018l-0.005-1.018c-1.056-0.004-1.911-0.882-1.907-1.956   c0.005-1.069,0.863-1.939,1.922-1.939c0.511,0.002,0.99,0.206,1.35,0.575C28.291,85.015,28.487,85.504,28.485,86.025z    M12.859,77.217l-0.007,1.018v-1.018c-1.052,0-1.91-0.872-1.915-1.94c-0.003-1.073,0.853-1.95,1.916-1.954   c1.049,0,1.905,0.869,1.91,1.937C14.768,76.334,13.913,77.212,12.859,77.217z"/></g></svg>