<svg xmlns="http://www.w3.org/2000/svg" viewBox="0 0 64 80" x="0px" y="0px"><title>Artboard 28</title><g><g data-name="Group"><path d="M20.58545,62a2.4015,2.4015,0,0,1-.50977-.05469l-5.76025-1.24707a2.39892,2.39892,0,0,1-1.83838-2.85352l.55273-2.543a.39328.39328,0,0,0-.1626-.4082.42772.42772,0,0,0-.49756-.04395l-2.19092,1.40723a2.40517,2.40517,0,0,1-3.31787-.71875L3.67139,50.58984a2.39728,2.39728,0,0,1,.71973-3.31641l2.19141-1.40723a.39321.39321,0,0,0,.17676-.40234.4253.4253,0,0,0-.31934-.38086l-2.54736-.55176a2.39793,2.39793,0,0,1-1.8374-2.85254L3.2998,35.9502A2.39989,2.39989,0,0,1,6.19238,34.123l2.52295.58887a.39921.39921,0,0,0,.43408-.18066.44982.44982,0,0,0,.041-.501l-1.436-2.22754a2.39868,2.39868,0,0,1,.71973-3.31738l4.957-3.18359a2.40769,2.40769,0,0,1,3.31787.71875l1.41016,2.1875a.40142.40142,0,0,0,.40723.17773.42808.42808,0,0,0,.38184-.31836l.55273-2.543a2.40186,2.40186,0,0,1,2.85547-1.835l5.76025,1.24707A2.39991,2.39991,0,0,1,29.95508,27.79l-.54053,2.4873a.39443.39443,0,0,0,.18018.42188l.1001.05762a.39969.39969,0,0,0,.42139-.00684l2.13721-1.373a2.408,2.408,0,0,1,3.31787.71973l3.19043,4.94727v.001A2.39728,2.39728,0,0,1,38.04,38.36133l-2.14062,1.375a.39211.39211,0,0,0-.1709.42969.42007.42007,0,0,0,.30664.32813l2.54688.5957a2.40949,2.40949,0,0,1,1.80078,2.84375L39.12793,49.707a2.40017,2.40017,0,0,1-2.85645,1.835l-2.5459-.55078a.39561.39561,0,0,0-.415.16309.422.422,0,0,0-.042.49121L34.67871,53.832a2.39737,2.39737,0,0,1-.7207,3.31641L29.001,60.333a2.40852,2.40852,0,0,1-3.31836-.71973l-1.439-2.23242a.39587.39587,0,0,0-.43457-.17187.4122.4122,0,0,0-.31445.30762l-.56348,2.59277A2.40456,2.40456,0,0,1,20.58545,62Zm-7.998-9.21582a2.46532,2.46532,0,0,1,2.39648,2.94238l-.55273,2.543a.39527.39527,0,0,0,.05469.29883.40067.40067,0,0,0,.25293.1748L20.499,59.99023a.4.4,0,0,0,.478-.30469l.56348-2.59375a2.39162,2.39162,0,0,1,1.74316-1.8125c.0293-.00781.07617-.01855.106-.02344a2.35763,2.35763,0,0,1,2.53467,1.041l1.43945,2.23242a.40074.40074,0,0,0,.55615.12012l4.95654-3.18359a.39711.39711,0,0,0,.12109-.5498l-1.41064-2.1875a2.3865,2.3865,0,0,1,.04736-2.666,2.42387,2.42387,0,0,1,2.51416-1.02637l2.5459.55078a.39958.39958,0,0,0,.47852-.30469l1.25488-5.77344a.40063.40063,0,0,0-.30078-.47168l-2.54785-.5957a2.42538,2.42538,0,0,1-.76074-4.3877l2.1416-1.376a.3934.3934,0,0,0,.17383-.25.39775.39775,0,0,0-.05371-.30078l-3.19043-4.94629a.4036.4036,0,0,0-.55469-.12109l-2.13721,1.373a2.39148,2.39148,0,0,1-2.52344.04492,2.41675,2.41675,0,0,1-1.21387-2.626l.54053-2.48633a.39949.39949,0,0,0-.30762-.47363l-5.76025-1.24707a.3957.3957,0,0,0-.478.30469l-.55273,2.543a2.44744,2.44744,0,0,1-4.42383.7998l-1.41016-2.1875a.40147.40147,0,0,0-.55615-.11914l-4.957,3.18359a.39751.39751,0,0,0-.12012.5498l1.43652,2.22852a2.38539,2.38539,0,0,1,.0459,2.52344,2.41316,2.41316,0,0,1-2.65576,1.18848l-2.52393-.58887a.40583.40583,0,0,0-.30713.05176.39585.39585,0,0,0-.17676.25293L4.00928,42.10254a.39774.39774,0,0,0,.30615.47363l2.54785.55176a2.44338,2.44338,0,0,1,.7998,4.4209L5.47217,48.95605a.39751.39751,0,0,0-.12012.5498L8.542,54.4541a.40017.40017,0,0,0,.55566.12012L11.28906,53.167A2.39454,2.39454,0,0,1,12.5874,52.78418Z"/></g><polygon points="14.134 43 17.177 41.748 16.539 39.848 11 42.198 11 43.802 16.538 46.152 17.178 44.257 14.134 43"/><polygon points="21.926 37.225 17.891 48.775 20.097 48.775 24.107 37.225 21.926 37.225"/><polygon points="25.461 39.848 24.823 41.748 27.866 43 24.822 44.257 25.462 46.152 31 43.802 31 42.198 25.461 39.848"/><g data-name="Group"><path d="M47.99023,29.09375a1.954,1.954,0,0,1-.415-.04395l-3.97656-.86133a1.96647,1.96647,0,0,1-1.50586-2.33789l.38184-1.75488-1.49707.98633a1.97039,1.97039,0,0,1-2.71777-.58887L36.05859,21.0791a1.964,1.964,0,0,1,.59082-2.71777l1.5127-.97168L36.4082,17.0332a1.96485,1.96485,0,0,1-1.50684-2.33789l.8584-3.95215a1.96738,1.96738,0,0,1,2.37109-1.49707l1.74023.40625L38.876,8.11426a1.964,1.964,0,0,1,.59082-2.71777l3.4209-2.19727A1.97207,1.97207,0,0,1,45.60547,3.79l.97266,1.50781.36133-1.749A1.978,1.978,0,0,1,49.2793,2.04492l3.97559.86035a1.96683,1.96683,0,0,1,1.50488,2.33789L54.3877,6.959,55.876,6.01172a1.97284,1.97284,0,0,1,2.7168.58887l2.20117,3.415a1.96578,1.96578,0,0,1-.58789,2.7168l-1.47949.94922,1.75391.37109a1.97246,1.97246,0,0,1,1.47363,2.33105l-.86426,3.98242A1.97329,1.97329,0,0,1,58.75,21.87109l-1.75684-.38086.9834,1.48926a1.964,1.964,0,0,1-.59082,2.71777L53.9668,27.89453a1.971,1.971,0,0,1-2.71875-.58887l-.97949-1.52051c-.01562.00391-.03027.00684-.04492.00977l-.31055,1.751A1.972,1.972,0,0,1,47.99023,29.09375Zm-5.51758-6.97852a2.01232,2.01232,0,0,1,1.957,2.40625l-.38184,1.75488,3.9502.81836.34961-1.76367a1.97758,1.97758,0,0,1,3.58887-.64941l.99316,1.54,3.375-2.208-.98242-1.459A1.99794,1.99794,0,0,1,57.417,19.53516l1.75684.38086L60,15.959l-1.73242-.37012a1.984,1.984,0,0,1-.62109-3.59082l1.44727-.92871L56.91113,7.68457l-1.42969.958A2.02246,2.02246,0,0,1,52.43359,6.5332l.37109-1.71387L48.85547,4l-.3418,1.72656a1.99935,1.99935,0,0,1-3.61621.65625L43.92383,4.873l-3.377,2.207,1.002,1.48828a1.95366,1.95366,0,0,1,.03711,2.06836,1.97444,1.97444,0,0,1-2.16895.96289l-1.74121-.40625-.81934,3.92578,1.73047.33887a1.99654,1.99654,0,0,1,.65625,3.61426l-1.51367.97266,2.21191,3.36426,1.46777-.98145A1.9682,1.9682,0,0,1,42.47266,22.11523ZM59.124,11.0498Z"/></g><polygon points="43.33 15.547 45.59 14.617 45.116 13.207 41.004 14.952 41.004 16.143 45.116 17.887 45.591 16.48 43.33 15.547"/><polygon points="49.116 11.26 46.12 19.835 47.757 19.835 50.735 11.26 49.116 11.26"/><polygon points="51.74 13.207 51.266 14.617 53.526 15.547 51.266 16.48 51.741 17.887 55.853 16.143 55.853 14.952 51.74 13.207"/></g></svg>