<svg xmlns="http://www.w3.org/2000/svg" xmlns:xlink="http://www.w3.org/1999/xlink" version="1.1" x="0px" y="0px" viewBox="0 0 100 125" style="enable-background:new 0 0 100 100;" xml:space="preserve"><g><path d="M84.5,36.5H59.3v-7.2c2.3-0.7,4-2.8,4-5.3c0-3-2.5-5.5-5.5-5.5S52.3,21,52.3,24c0,2.5,1.7,4.6,4,5.3v7.2H31.1   c-2.5,0-4.5,1.9-4.7,4.3c-2.8-0.2-5.6,0.4-8.1,1.7c-3.4,1.9-5.9,4.9-7,8.6c-1.1,3.7-0.7,7.6,1.2,11c1.9,3.4,4.9,5.9,8.6,7   c1.4,0.4,2.7,0.6,4.1,0.6c0.4,0,0.7,0,1.1-0.1v7c0,2.6,2.1,4.8,4.8,4.8h53.4c2.6,0,4.8-2.1,4.8-4.8V41.3   C89.3,38.6,87.1,36.5,84.5,36.5z M55.3,24c0-1.4,1.1-2.5,2.5-2.5s2.5,1.1,2.5,2.5s-1.1,2.5-2.5,2.5S55.3,25.4,55.3,24z M22,66.3   c-2.9-0.9-5.4-2.8-6.9-5.5c-1.5-2.7-1.8-5.8-0.9-8.8c0.9-2.9,2.8-5.4,5.5-6.9c1.7-0.9,3.6-1.4,5.5-1.4c1.1,0,2.2,0.2,3.3,0.5   c2.9,0.9,5.4,2.8,6.9,5.5c1.7,3.1,1.9,6.8,0.5,10.1c-0.2,0.4-0.2,0.9,0.1,1.3l1.7,3.2l-3.2-0.9c-0.5-0.1-1,0-1.4,0.3   c-0.7,0.7-1.5,1.2-2.2,1.6C28,66.8,24.9,67.2,22,66.3z M86.3,76.7c0,1-0.8,1.8-1.8,1.8H31.1c-1,0-1.8-0.8-1.8-1.8v-7.5   c1-0.3,1.9-0.7,2.9-1.2c0.8-0.4,1.5-0.9,2.2-1.5l5.9,1.7c0.6,0.2,1.2,0,1.6-0.5s0.4-1.1,0.1-1.7l-3.1-5.8c1.5-4,1.2-8.3-0.9-12   c-1.9-3.4-4.9-5.9-8.6-7c0,0,0,0,0,0v-0.1c0-1,0.8-1.8,1.8-1.8h53.4c1,0,1.8,0.8,1.8,1.8V76.7z"/><path d="M47.8,48.5c-3,0-5.5,2.5-5.5,5.5c0,3,2.5,5.5,5.5,5.5s5.5-2.5,5.5-5.5C53.3,51,50.8,48.5,47.8,48.5z M47.8,56.5   c-1.4,0-2.5-1.1-2.5-2.5s1.1-2.5,2.5-2.5s2.5,1.1,2.5,2.5S49.2,56.5,47.8,56.5z"/><path d="M67.8,48.5c-3,0-5.5,2.5-5.5,5.5c0,3,2.5,5.5,5.5,5.5s5.5-2.5,5.5-5.5C73.3,51,70.8,48.5,67.8,48.5z M67.8,56.5   c-1.4,0-2.5-1.1-2.5-2.5s1.1-2.5,2.5-2.5s2.5,1.1,2.5,2.5S69.2,56.5,67.8,56.5z"/><path d="M61.8,64.5c-0.8,0-1.5,0.7-1.5,1.5c0,1.4-1.1,2.5-2.5,2.5s-2.5-1.1-2.5-2.5c0-0.8-0.7-1.5-1.5-1.5s-1.5,0.7-1.5,1.5   c0,3,2.5,5.5,5.5,5.5s5.5-2.5,5.5-5.5C63.3,65.2,62.6,64.5,61.8,64.5z"/><path d="M20.4,53.8c-0.1,0-0.2,0-0.3,0.1c-0.1,0-0.2,0.1-0.3,0.1c-0.1,0-0.1,0.1-0.2,0.2c-0.3,0.3-0.4,0.7-0.4,1   c0,0.2,0,0.4,0.1,0.6c0.1,0.2,0.2,0.3,0.3,0.5c0.3,0.3,0.7,0.4,1.1,0.4c0.2,0,0.4,0,0.6-0.1c0.2-0.1,0.3-0.2,0.5-0.3   c0.1-0.1,0.2-0.3,0.3-0.5c0.1-0.2,0.1-0.4,0.1-0.6c0-0.4-0.2-0.8-0.4-1C21.4,53.9,20.9,53.7,20.4,53.8z"/><path d="M25.4,53.8c-0.8,0-1.5,0.7-1.5,1.5c0,0.8,0.7,1.5,1.5,1.5s1.5-0.7,1.5-1.5C26.9,54.5,26.2,53.8,25.4,53.8z"/><path d="M31.5,55.8c0.1-0.2,0.1-0.4,0.1-0.6c0-0.4-0.2-0.8-0.4-1c-0.6-0.6-1.6-0.6-2.1,0c-0.3,0.3-0.4,0.7-0.4,1   c0,0.2,0,0.4,0.1,0.6c0.1,0.2,0.2,0.3,0.3,0.5c0.3,0.3,0.7,0.4,1.1,0.4s0.8-0.1,1.1-0.4C31.3,56.2,31.5,56,31.5,55.8z"/></g></svg>