<svg xmlns="http://www.w3.org/2000/svg" xmlns:xlink="http://www.w3.org/1999/xlink" version="1.1" x="0px" y="0px" viewBox="0 0 100 125" style="enable-background:new 0 0 100 100;" xml:space="preserve"><path d="M56.04,43.2H43.96c-0.42,0-0.76,0.34-0.76,0.76v12.08c0,0.42,0.34,0.76,0.76,0.76h12.08c0.42,0,0.76-0.34,0.76-0.76V43.96  C56.8,43.54,56.46,43.2,56.04,43.2z M55.28,55.28H44.72V44.72h10.57V55.28z"/><path d="M40.6,41.36v17.28c0,0.42,0.34,0.76,0.76,0.76h17.28c0.42,0,0.76-0.34,0.76-0.76V41.36c0-0.42-0.34-0.76-0.76-0.76H41.36  C40.94,40.6,40.6,40.94,40.6,41.36z M42.12,42.12h15.76v15.76H42.12V42.12z"/><path d="M43.22,39.64c0.42,0,0.76-0.34,0.76-0.76v-2.1c0-0.42-0.34-0.76-0.76-0.76s-0.76,0.34-0.76,0.76v2.1  C42.46,39.3,42.8,39.64,43.22,39.64z"/><path d="M45.93,39.64c0.42,0,0.76-0.34,0.76-0.76v-2.1c0-0.42-0.34-0.76-0.76-0.76s-0.76,0.34-0.76,0.76v2.1  C45.17,39.3,45.51,39.64,45.93,39.64z"/><path d="M48.64,39.64c0.42,0,0.76-0.34,0.76-0.76v-2.1c0-0.42-0.34-0.76-0.76-0.76s-0.76,0.34-0.76,0.76v2.1  C47.89,39.3,48.23,39.64,48.64,39.64z"/><path d="M51.36,39.64c0.42,0,0.76-0.34,0.76-0.76v-2.1c0-0.42-0.34-0.76-0.76-0.76s-0.76,0.34-0.76,0.76v2.1  C50.6,39.3,50.94,39.64,51.36,39.64z"/><path d="M54.07,39.64c0.42,0,0.76-0.34,0.76-0.76v-2.1c0-0.42-0.34-0.76-0.76-0.76s-0.76,0.34-0.76,0.76v2.1  C53.31,39.3,53.65,39.64,54.07,39.64z"/><path d="M56.78,39.64c0.42,0,0.76-0.34,0.76-0.76v-2.1c0-0.42-0.34-0.76-0.76-0.76s-0.76,0.34-0.76,0.76v2.1  C56.03,39.3,56.36,39.64,56.78,39.64z"/><path d="M43.22,60.36c-0.42,0-0.76,0.34-0.76,0.76v2.1c0,0.42,0.34,0.76,0.76,0.76s0.76-0.34,0.76-0.76v-2.1  C43.97,60.7,43.64,60.36,43.22,60.36z"/><path d="M45.93,60.36c-0.42,0-0.76,0.34-0.76,0.76v2.1c0,0.42,0.34,0.76,0.76,0.76s0.76-0.34,0.76-0.76v-2.1  C46.69,60.7,46.35,60.36,45.93,60.36z"/><path d="M48.64,60.36c-0.42,0-0.76,0.34-0.76,0.76v2.1c0,0.42,0.34,0.76,0.76,0.76s0.76-0.34,0.76-0.76v-2.1  C49.4,60.7,49.06,60.36,48.64,60.36z"/><path d="M51.36,60.36c-0.42,0-0.76,0.34-0.76,0.76v2.1c0,0.42,0.34,0.76,0.76,0.76s0.76-0.34,0.76-0.76v-2.1  C52.11,60.7,51.77,60.36,51.36,60.36z"/><path d="M54.07,60.36c-0.42,0-0.76,0.34-0.76,0.76v2.1c0,0.42,0.34,0.76,0.76,0.76s0.76-0.34,0.76-0.76v-2.1  C54.83,60.7,54.49,60.36,54.07,60.36z"/><path d="M56.78,60.36c-0.42,0-0.76,0.34-0.76,0.76v2.1c0,0.42,0.34,0.76,0.76,0.76s0.76-0.34,0.76-0.76v-2.1  C57.54,60.7,57.2,60.36,56.78,60.36z"/><path d="M61.12,43.97h2.1c0.42,0,0.76-0.34,0.76-0.76s-0.34-0.76-0.76-0.76h-2.1c-0.42,0-0.76,0.34-0.76,0.76  S60.7,43.97,61.12,43.97z"/><path d="M61.12,46.69h2.1c0.42,0,0.76-0.34,0.76-0.76s-0.34-0.76-0.76-0.76h-2.1c-0.42,0-0.76,0.34-0.76,0.76  S60.7,46.69,61.12,46.69z"/><path d="M61.12,49.4h2.1c0.42,0,0.76-0.34,0.76-0.76s-0.34-0.76-0.76-0.76h-2.1c-0.42,0-0.76,0.34-0.76,0.76S60.7,49.4,61.12,49.4z"/><path d="M61.12,52.11h2.1c0.42,0,0.76-0.34,0.76-0.76s-0.34-0.76-0.76-0.76h-2.1c-0.42,0-0.76,0.34-0.76,0.76  S60.7,52.11,61.12,52.11z"/><path d="M61.12,54.83h2.1c0.42,0,0.76-0.34,0.76-0.76s-0.34-0.76-0.76-0.76h-2.1c-0.42,0-0.76,0.34-0.76,0.76  S60.7,54.83,61.12,54.83z"/><path d="M61.12,57.54h2.1c0.42,0,0.76-0.34,0.76-0.76s-0.34-0.76-0.76-0.76h-2.1c-0.42,0-0.76,0.34-0.76,0.76  S60.7,57.54,61.12,57.54z"/><path d="M38.88,42.46h-2.1c-0.42,0-0.76,0.34-0.76,0.76s0.34,0.76,0.76,0.76h2.1c0.42,0,0.76-0.34,0.76-0.76S39.3,42.46,38.88,42.46  z"/><path d="M38.88,45.17h-2.1c-0.42,0-0.76,0.34-0.76,0.76s0.34,0.76,0.76,0.76h2.1c0.42,0,0.76-0.34,0.76-0.76S39.3,45.17,38.88,45.17  z"/><path d="M38.88,47.89h-2.1c-0.42,0-0.76,0.34-0.76,0.76s0.34,0.76,0.76,0.76h2.1c0.42,0,0.76-0.34,0.76-0.76S39.3,47.89,38.88,47.89  z"/><path d="M38.88,50.6h-2.1c-0.42,0-0.76,0.34-0.76,0.76s0.34,0.76,0.76,0.76h2.1c0.42,0,0.76-0.34,0.76-0.76S39.3,50.6,38.88,50.6z"/><path d="M38.88,53.31h-2.1c-0.42,0-0.76,0.34-0.76,0.76s0.34,0.76,0.76,0.76h2.1c0.42,0,0.76-0.34,0.76-0.76S39.3,53.31,38.88,53.31  z"/><path d="M38.88,56.03h-2.1c-0.42,0-0.76,0.34-0.76,0.76s0.34,0.76,0.76,0.76h2.1c0.42,0,0.76-0.34,0.76-0.76S39.3,56.03,38.88,56.03  z"/><path d="M81.95,37.54c0.01,0,0.02,0,0.03,0c0.01,0,0.03,0,0.04-0.01c0.01,0,0.02-0.01,0.04-0.01c0.01,0,0.02-0.01,0.03-0.01  c0.01,0,0.02-0.01,0.04-0.01c0.01,0,0.02-0.01,0.03-0.01c0.01,0,0.02-0.01,0.03-0.02c0.01-0.01,0.02-0.01,0.03-0.02  c0.01-0.01,0.02-0.01,0.03-0.02c0.01-0.01,0.02-0.01,0.03-0.02c0.01-0.01,0.02-0.02,0.03-0.02c0.01-0.01,0.02-0.01,0.03-0.02  c0.02-0.02,0.04-0.03,0.06-0.05l6.71-6.71c0.31,0.15,0.66,0.24,1.04,0.24c1.3,0,2.35-1.05,2.35-2.35c0-1.3-1.05-2.35-2.35-2.35  c-1.3,0-2.35,1.05-2.35,2.35c0,0.37,0.09,0.72,0.24,1.04l-6.49,6.49h-9.92c-1.19-0.6-2.41-1.16-3.66-1.67  c-2.64-1.07-5.34-1.9-8.1-2.48v-7l7.5-7.5c0.31,0.15,0.66,0.24,1.04,0.24c1.3,0,2.35-1.05,2.35-2.35s-1.05-2.35-2.35-2.35  s-2.35,1.05-2.35,2.35c0,0.37,0.09,0.72,0.24,1.04l-7.72,7.72c-0.02,0.02-0.03,0.04-0.05,0.06c-0.01,0.01-0.01,0.02-0.02,0.03  c-0.01,0.01-0.02,0.02-0.02,0.03c-0.01,0.01-0.01,0.02-0.02,0.03c-0.01,0.01-0.01,0.02-0.02,0.03c-0.01,0.01-0.01,0.02-0.02,0.03  c-0.01,0.01-0.01,0.02-0.02,0.03c0,0.01-0.01,0.02-0.01,0.03c0,0.01-0.01,0.02-0.01,0.04c0,0.01-0.01,0.02-0.01,0.04  c0,0.01-0.01,0.02-0.01,0.04c0,0.01,0,0.03-0.01,0.04c0,0.01,0,0.02,0,0.03c0,0.02,0,0.05,0,0.08v7.02  c-2.5-0.44-5.04-0.68-7.61-0.72V17.51c0.92-0.32,1.59-1.19,1.59-2.22c0-1.3-1.05-2.35-2.35-2.35s-2.35,1.05-2.35,2.35  c0,1.03,0.67,1.91,1.59,2.22v13.36c-2.57,0.04-5.11,0.28-7.61,0.72v-7.02c0,0,0,0,0,0c0-0.02,0-0.05,0-0.07c0-0.01,0-0.02,0-0.03  c0-0.01,0-0.03-0.01-0.04c0-0.01-0.01-0.03-0.01-0.04c0-0.01-0.01-0.02-0.01-0.03c0-0.01-0.01-0.02-0.01-0.04  c0-0.01-0.01-0.02-0.01-0.03c0-0.01-0.01-0.02-0.02-0.03c-0.01-0.01-0.01-0.02-0.02-0.03c-0.01-0.01-0.01-0.02-0.02-0.03  c-0.01-0.01-0.01-0.02-0.02-0.03c-0.01-0.01-0.02-0.02-0.02-0.03c-0.01-0.01-0.01-0.02-0.02-0.03c-0.02-0.02-0.03-0.04-0.05-0.06  l-7.72-7.72c0.15-0.31,0.24-0.66,0.24-1.04c0-1.3-1.05-2.35-2.35-2.35c-1.3,0-2.35,1.05-2.35,2.35s1.05,2.35,2.35,2.35  c0.37,0,0.72-0.09,1.04-0.24l7.5,7.5v7c-2.76,0.58-5.46,1.41-8.1,2.48c-1.25,0.51-2.47,1.06-3.66,1.67h-9.92l-6.49-6.49  c0.15-0.31,0.24-0.66,0.24-1.04c0-1.3-1.05-2.35-2.35-2.35S7.5,27.21,7.5,28.5c0,1.3,1.05,2.35,2.35,2.35  c0.37,0,0.72-0.09,1.04-0.24l6.71,6.71c0.02,0.02,0.04,0.03,0.06,0.05c0.01,0.01,0.02,0.01,0.03,0.02c0.01,0.01,0.02,0.02,0.03,0.02  c0.01,0.01,0.02,0.01,0.03,0.02c0.01,0.01,0.02,0.01,0.03,0.02c0.01,0.01,0.02,0.01,0.03,0.02c0.01,0.01,0.02,0.01,0.03,0.02  c0.01,0,0.02,0.01,0.03,0.01c0.01,0,0.02,0.01,0.04,0.01c0.01,0,0.02,0.01,0.03,0.01c0.01,0,0.02,0.01,0.04,0.01  c0.01,0,0.03,0,0.04,0.01c0.01,0,0.02,0,0.03,0c0.02,0,0.05,0,0.07,0h7.48c-3.4,2.02-6.55,4.47-9.4,7.32l-3.72,3.72  c-0.78,0.78-0.78,2.06,0,2.84l3.72,3.72c2.85,2.85,5.99,5.3,9.4,7.32h-7.48c0,0-0.01,0-0.01,0c-0.02,0-0.04,0-0.07,0  c-0.01,0-0.02,0-0.04,0.01c-0.01,0-0.02,0-0.04,0.01c-0.01,0-0.03,0.01-0.04,0.01c-0.01,0-0.02,0.01-0.03,0.01  c-0.01,0-0.03,0.01-0.04,0.01c-0.01,0-0.02,0.01-0.03,0.01c-0.01,0-0.02,0.01-0.03,0.02c-0.01,0.01-0.02,0.01-0.03,0.02  c-0.01,0.01-0.02,0.01-0.03,0.02c-0.01,0.01-0.02,0.01-0.03,0.02c-0.01,0.01-0.02,0.02-0.03,0.02c-0.01,0.01-0.02,0.01-0.03,0.02  c-0.02,0.02-0.04,0.03-0.06,0.05l-6.71,6.71c-0.31-0.15-0.66-0.24-1.04-0.24c-1.3,0-2.35,1.05-2.35,2.35s1.05,2.35,2.35,2.35  s2.35-1.05,2.35-2.35c0-0.37-0.09-0.72-0.24-1.04l6.49-6.49h9.92c1.19,0.6,2.41,1.16,3.66,1.67c2.64,1.07,5.34,1.9,8.1,2.48v7  l-7.5,7.5c-0.31-0.15-0.66-0.24-1.04-0.24c-1.3,0-2.35,1.05-2.35,2.35c0,1.3,1.05,2.35,2.35,2.35c1.3,0,2.35-1.05,2.35-2.35  c0-0.37-0.09-0.72-0.24-1.04l7.72-7.72c0.02-0.02,0.03-0.04,0.05-0.06c0.01-0.01,0.01-0.02,0.02-0.03c0.01-0.01,0.02-0.02,0.02-0.03  c0.01-0.01,0.01-0.02,0.02-0.03c0.01-0.01,0.01-0.02,0.02-0.03c0.01-0.01,0.01-0.02,0.02-0.03c0.01-0.01,0.01-0.02,0.02-0.03  c0-0.01,0.01-0.02,0.01-0.03c0-0.01,0.01-0.02,0.01-0.04c0-0.01,0.01-0.02,0.01-0.03c0-0.01,0.01-0.03,0.01-0.04  c0-0.01,0-0.03,0.01-0.04c0-0.01,0-0.02,0-0.03c0-0.02,0-0.05,0-0.07c0,0,0,0,0,0v-7.02c2.5,0.44,5.04,0.68,7.61,0.72v13.36  c-0.92,0.32-1.59,1.19-1.59,2.22c0,1.3,1.05,2.35,2.35,2.35s2.35-1.05,2.35-2.35c0-1.03-0.67-1.91-1.59-2.22V69.13  c2.57-0.04,5.11-0.28,7.61-0.72v7.02c0,0.03,0,0.05,0,0.08c0,0.01,0,0.02,0,0.03c0,0.01,0,0.03,0.01,0.04  c0,0.01,0.01,0.02,0.01,0.04c0,0.01,0.01,0.02,0.01,0.04c0,0.01,0.01,0.02,0.01,0.04c0,0.01,0.01,0.02,0.01,0.03  c0,0.01,0.01,0.02,0.02,0.03c0.01,0.01,0.01,0.02,0.02,0.03c0.01,0.01,0.01,0.02,0.02,0.03c0.01,0.01,0.01,0.02,0.02,0.03  c0.01,0.01,0.02,0.02,0.02,0.03c0.01,0.01,0.01,0.02,0.02,0.03c0.02,0.02,0.03,0.04,0.05,0.06l7.72,7.72  c-0.15,0.31-0.24,0.66-0.24,1.04c0,1.3,1.05,2.35,2.35,2.35s2.35-1.05,2.35-2.35c0-1.3-1.05-2.35-2.35-2.35  c-0.37,0-0.72,0.09-1.04,0.24l-7.5-7.5v-7c2.76-0.58,5.46-1.41,8.1-2.48c1.25-0.51,2.47-1.06,3.66-1.67h9.92l6.49,6.49  c-0.15,0.31-0.24,0.66-0.24,1.04c0,1.3,1.05,2.35,2.35,2.35c1.3,0,2.35-1.05,2.35-2.35s-1.05-2.35-2.35-2.35  c-0.37,0-0.72,0.09-1.04,0.24l-6.71-6.71c-0.02-0.02-0.04-0.03-0.06-0.05c-0.01-0.01-0.02-0.01-0.03-0.02  c-0.01-0.01-0.02-0.02-0.03-0.02c-0.01-0.01-0.02-0.01-0.03-0.02c-0.01-0.01-0.02-0.01-0.03-0.02c-0.01-0.01-0.02-0.01-0.03-0.02  c-0.01-0.01-0.02-0.01-0.03-0.02c-0.01,0-0.02-0.01-0.03-0.01c-0.01,0-0.02-0.01-0.04-0.01c-0.01,0-0.02-0.01-0.03-0.01  c-0.01,0-0.03-0.01-0.04-0.01c-0.01,0-0.02,0-0.04-0.01c-0.01,0-0.02,0-0.04-0.01c-0.02,0-0.04,0-0.07,0c0,0-0.01,0-0.01,0H74.4  c3.4-2.02,6.55-4.47,9.4-7.32l3.72-3.72c0.38-0.38,0.59-0.88,0.59-1.42s-0.21-1.04-0.59-1.42l-3.72-3.72  c-2.85-2.85-5.99-5.3-9.4-7.32h7.48C81.9,37.54,81.92,37.54,81.95,37.54z M82.72,45.93l3.72,3.72c0.09,0.09,0.14,0.22,0.14,0.35  c0,0.13-0.05,0.26-0.14,0.35l-3.72,3.72C73.98,62.81,62.36,67.63,50,67.63s-23.98-4.81-32.72-13.55l-3.72-3.72  c-0.19-0.19-0.19-0.5,0-0.7l3.72-3.72C26.02,37.19,37.64,32.37,50,32.37S73.98,37.19,82.72,45.93z"/><circle cx="50" cy="50" r="2.35"/><path d="M26.83,46.07c-2.16,0-3.93,1.76-3.93,3.93c0,2.16,1.76,3.93,3.93,3.93c2.16,0,3.93-1.76,3.93-3.93  C30.75,47.84,28.99,46.07,26.83,46.07z"/><path d="M73.17,53.93c2.16,0,3.93-1.76,3.93-3.93c0-2.16-1.76-3.93-3.93-3.93s-3.93,1.76-3.93,3.93  C69.25,52.16,71.01,53.93,73.17,53.93z"/></svg>