<svg xmlns="http://www.w3.org/2000/svg" xmlns:xlink="http://www.w3.org/1999/xlink" version="1.1" x="0px" y="0px" viewBox="0 0 512 640" style="enable-background:new 0 0 512 512;" xml:space="preserve"><style type="text/css">
	.st0{fill-rule:evenodd;clip-rule:evenodd;}
</style><path class="st0" d="M214.711,390.275c6.583,0,6.583,10,0,10H16.01c-2.761,0-5-2.239-5-5V25.005c0-6.583,10-6.583,10,0v12.709  h24.139c6.583,0,6.583,10,0,10H21.01v21.5h13.636c6.583,0,6.583,10,0,10H21.01v21.5h24.139c6.583,0,6.583,10,0,10H21.01v21.5h13.636  c6.583,0,6.583,10,0,10H21.01v21.5h24.139c6.583,0,6.583,10,0,10H21.01v21.5h13.636c6.583,0,6.583,10,0,10H21.01v21.5h24.139  c6.583,0,6.583,10,0,10H21.01v21.5h13.636c6.583,0,6.583,10,0,10H21.01v21.5h24.139c6.583,0,6.583,10,0,10H21.01v21.5h13.636  c6.583,0,6.583,10,0,10H21.01v21.5h24.139c6.583,0,6.583,10,0,10H21.01v27.561H214.711L214.711,390.275z M465.581,278.336  c29.585,26.275,42.212,67.053,31.814,105.914c-0.712,2.664-3.449,4.247-6.113,3.535l-96.767-25.929  c-3.462-0.926-5.136-5.316-2.203-8.394l66.237-74.697C460.373,276.706,463.521,276.513,465.581,278.336L465.581,278.336z   M487.01,329.75c-4.601-15.326-13.002-29.307-24.396-40.552l-57.725,65.098l84.028,22.515  C492.349,360.715,491.469,344.604,487.01,329.75L487.01,329.75z M336.794,372.812l-83.545-58.964  c-21.982,34.419-22.884,78.239-2.549,113.458l-0.008,0.005l4.183,6.681L336.794,372.812L336.794,372.812z M259.002,305.692  l85.526,60.362l69.444-78.313c-11.863-9.597-25.632-16.575-40.41-20.534c-8.954-2.399-14.647-3.019-23.45-3.64  c-20.354-1.179-41.93,4.429-59.446,14.542C278.521,285.122,267.643,294.568,259.002,305.692L259.002,305.692z M346.343,378.152  L260.85,442c33.879,41.342,92.807,51.99,139.047,25.293c22.864-13.201,40.971-34.643,49.487-61.531L346.343,378.152L346.343,378.152  z M250.035,444.345c15.453,20.579,37.643,36.326,64.409,43.498c63.583,17.037,128.984-20.736,145.99-84.294  c0.712-2.664-0.871-5.401-3.535-6.113l-102.524-27.471l70.434-79.429c1.823-2.06,1.63-5.208-0.43-7.031  c-8.6-7.623-18.106-13.909-28.623-18.814V130.473c0-2.761-2.239-5-5-5h-40.157c-2.761,0-5,2.239-5,5v123.002  c-6.8-0.021-13.527,0.546-20.118,1.662v-58.951c0-2.761-2.239-5-5-5h-40.157c-2.761,0-5,2.239-5,5v80.024  c-7.349,5.322-14.11,11.489-20.118,18.406V172.717c0-2.761-2.239-5-5-5H210.05c-2.761,0-5,2.239-5,5v170.554c0,2.761,2.239,5,5,5  h18.568c-6.242,29.68-0.782,59.387,13.449,84.035l0.008-0.005C243.507,434.779,248.279,442.342,250.035,444.345L250.035,444.345z   M231.171,338.271c3.308-10.985,8.076-21.159,14.036-30.363V177.717H215.05v160.553H231.171L231.171,338.271z M285.324,269.7  v-68.515h30.157v56.092C304.971,260.004,294.632,264.25,285.324,269.7L285.324,269.7z M355.599,253.928V135.473h30.157v125.098  C376.003,257.059,365.813,254.823,355.599,253.928L355.599,253.928z M374.029,35.43c-13.634,0-22.793,13.917-17.59,26.383  l-51.717,40.157c-8.169-6.159-19.732-4.744-26.204,3.158l-27.17-12.168c1.811-11.57-7.122-22.02-18.822-22.02  c-14.141,0-23.281,14.878-17.11,27.44l-46.678,40.973c-7.729-5.139-18.025-3.935-24.389,2.8l-37.78-14.326  c0.065-10.599-8.485-19.192-19.051-19.192c-16.913,0-25.447,20.548-13.471,32.524c8.789,8.789,23.457,6.923,29.822-3.687  l35.749,13.556c-2.676,11.885,6.35,23.254,18.587,23.254c14.141,0,23.281-14.879,17.11-27.441l46.678-40.973  c8.159,5.425,19.093,3.746,25.28-3.813l27.17,12.168c-1.81,11.569,7.121,22.02,18.822,22.02c13.634,0,22.793-13.917,17.59-26.383  l51.717-40.157c7.583,5.717,18.219,4.959,24.929-1.751C399.476,55.978,390.943,35.43,374.029,35.43L374.029,35.43z M380.43,48.081  c3.535,3.535,3.535,9.268,0,12.802c-5.687,5.686-15.453,1.641-15.453-6.401C364.976,46.44,374.743,42.396,380.43,48.081  L380.43,48.081z M299.665,110.791c3.535,3.535,3.535,9.268,0,12.802c-5.685,5.686-15.453,1.642-15.453-6.401  C284.212,109.148,293.981,105.106,299.665,110.791L299.665,110.791z M238.927,83.592c3.534,3.534,3.534,9.268,0,12.802  c-5.685,5.686-15.453,1.642-15.453-6.401C223.474,81.95,233.241,77.907,238.927,83.592L238.927,83.592z M164.605,148.83  c-5.686-5.686-15.453-1.641-15.453,6.401c0,8.042,9.767,12.087,15.453,6.401C168.14,158.098,168.14,152.364,164.605,148.83  L164.605,148.83z M93.919,121.288c-5.686-5.686-15.453-1.641-15.453,6.401c0,8.042,9.767,12.087,15.453,6.401  C97.454,130.556,97.454,124.823,93.919,121.288L93.919,121.288z M139.775,239.166c-2.761,0-5,2.239-5,5v99.105c0,2.761,2.239,5,5,5  h40.157c2.761,0,5-2.239,5-5v-99.105c0-2.761-2.239-5-5-5H139.775L139.775,239.166z M174.932,249.166h-30.157v89.105h30.157V249.166  L174.932,249.166z M69.5,208.396c-2.761,0-5,2.239-5,5v129.875c0,2.761,2.239,5,5,5h40.157c2.761,0,5-2.239,5-5V213.396  c0-2.761-2.239-5-5-5H69.5L69.5,208.396z M104.657,218.396H74.5v119.875h30.157V218.396z"/></svg>