<svg xmlns="http://www.w3.org/2000/svg" xmlns:xlink="http://www.w3.org/1999/xlink" version="1.1" x="0px" y="0px" viewBox="0 0 96 120" style="enable-background:new 0 0 96 96;" xml:space="preserve"><path d="M59.595,34.727c-2.796-0.775-6.391-1.237-10.238-1.326v-1.161c1.025-0.504,1.733-1.556,1.733-2.773  c0-1.704-1.387-3.091-3.091-3.091c-1.704,0-3.091,1.387-3.091,3.091c0,1.217,0.709,2.269,1.733,2.772v1.161  c-3.847,0.089-7.441,0.551-10.238,1.326c-3.756,1.041-5.66,2.529-5.66,4.422v31.796c0,4.551,10.847,5.765,17.256,5.765  s17.256-1.214,17.256-5.765V39.153c0-0.001,0-0.002,0-0.003C65.256,37.256,63.351,35.768,59.595,34.727z M62.54,60.519  c-0.082,0.256-0.981,1.133-4.045,1.924c-2.843,0.734-6.571,1.139-10.495,1.139c-3.925,0-7.652-0.404-10.495-1.139  c-3.064-0.792-3.964-1.668-4.045-1.924v-7.902c3.635,1.836,10.136,2.409,14.54,2.409c4.405,0,10.905-0.573,14.54-2.409V60.519z   M62.54,49.248c-0.082,0.256-0.981,1.133-4.045,1.924c-2.843,0.734-6.571,1.139-10.495,1.139c-3.925,0-7.652-0.404-10.495-1.139  c-3.064-0.792-3.964-1.668-4.045-1.924v-6.766c0.805,0.405,1.786,0.769,2.945,1.09c3.123,0.866,7.241,1.343,11.595,1.343  s8.472-0.477,11.595-1.343c1.158-0.321,2.14-0.685,2.945-1.09V49.248z M48,29.093c0.204,0,0.376,0.172,0.376,0.375  c0,0.204-0.172,0.375-0.376,0.375c-0.203,0-0.375-0.172-0.375-0.375C47.625,29.265,47.796,29.093,48,29.093z M37.527,37.238  c2.515-0.648,5.711-1.039,9.115-1.121v3.033c0,0.75,0.608,1.358,1.358,1.358s1.358-0.608,1.358-1.358v-3.033  c3.405,0.082,6.601,0.473,9.115,1.121c3.013,0.777,3.946,1.636,4.061,1.912c-0.115,0.276-1.048,1.135-4.062,1.912  c-2.847,0.734-6.566,1.138-10.473,1.138s-7.626-0.404-10.473-1.138c-3.013-0.777-3.947-1.636-4.062-1.912  C33.581,38.874,34.514,38.015,37.527,37.238z M58.495,72.856c-2.843,0.735-6.571,1.139-10.495,1.139  c-3.925,0-7.652-0.404-10.495-1.139c-3.064-0.792-3.963-1.668-4.045-1.924v-7.045c3.635,1.836,10.136,2.409,14.54,2.409  c4.405,0,10.905-0.573,14.54-2.409v7.045C62.459,71.189,61.56,72.065,58.495,72.856z M56.14,48.057  c0.097,0.743-0.426,1.425-1.17,1.523c-1.178,0.154-2.405,0.269-3.648,0.34c-0.027,0.002-0.053,0.002-0.079,0.002  c-0.714,0-1.313-0.558-1.354-1.28c-0.043-0.749,0.529-1.39,1.278-1.433c1.178-0.068,2.339-0.176,3.451-0.322  C55.361,46.792,56.043,47.314,56.14,48.057z M60.563,46.996c0.201,0.722-0.221,1.471-0.943,1.672  c-0.159,0.044-0.322,0.088-0.488,0.13c-0.114,0.029-0.227,0.043-0.339,0.043c-0.605,0-1.156-0.407-1.314-1.02  c-0.187-0.726,0.25-1.466,0.976-1.653c0.148-0.038,0.293-0.077,0.436-0.116C59.612,45.852,60.361,46.274,60.563,46.996z   M49.889,59.151c-0.043-0.749,0.529-1.39,1.278-1.433c1.18-0.068,2.341-0.176,3.451-0.322c0.743-0.095,1.425,0.426,1.523,1.169  c0.098,0.743-0.426,1.425-1.169,1.523c-1.175,0.154-2.403,0.269-3.649,0.34c-0.027,0.002-0.053,0.002-0.079,0.002  C50.529,60.431,49.93,59.873,49.889,59.151z M57.478,58.33c-0.186-0.726,0.252-1.466,0.978-1.652  c0.148-0.038,0.293-0.077,0.436-0.116c0.722-0.2,1.471,0.223,1.671,0.945c0.201,0.722-0.223,1.471-0.945,1.671  c-0.159,0.044-0.322,0.088-0.488,0.13c-0.113,0.029-0.226,0.043-0.338,0.043C58.187,59.351,57.635,58.943,57.478,58.33z   M56.14,69.286c0.098,0.743-0.426,1.425-1.169,1.523c-1.176,0.154-2.404,0.269-3.649,0.34c-0.026,0.002-0.053,0.002-0.079,0.002  c-0.714,0-1.313-0.558-1.354-1.28c-0.043-0.749,0.529-1.39,1.278-1.433c1.179-0.067,2.34-0.176,3.451-0.321  C55.361,68.02,56.042,68.543,56.14,69.286z M60.563,68.227c0.201,0.722-0.223,1.471-0.945,1.671  c-0.159,0.044-0.322,0.088-0.488,0.13c-0.113,0.029-0.226,0.043-0.338,0.043c-0.605,0-1.157-0.408-1.314-1.021  c-0.186-0.726,0.252-1.466,0.978-1.652c0.148-0.038,0.293-0.077,0.436-0.116C59.614,67.081,60.363,67.504,60.563,68.227z   M73.419,40.795c0,1.217,0.709,2.269,1.733,2.773v3.616h-6.375c-0.75,0-1.358,0.608-1.358,1.358s0.608,1.358,1.358,1.358h7.733  c0.75,0,1.358-0.608,1.358-1.358v-4.974c1.025-0.504,1.733-1.556,1.733-2.773c0-1.704-1.387-3.091-3.091-3.091  C74.806,37.704,73.419,39.091,73.419,40.795z M76.886,40.795c0,0.204-0.172,0.376-0.375,0.376c-0.204,0-0.375-0.172-0.375-0.376  c0-0.203,0.172-0.375,0.375-0.375C76.714,40.42,76.886,40.591,76.886,40.795z M82.861,51.957c-1.217,0-2.269,0.709-2.772,1.733  H68.777c-0.75,0-1.358,0.608-1.358,1.358s0.608,1.358,1.358,1.358h11.312c0.504,1.025,1.556,1.733,2.772,1.733  c1.704,0,3.091-1.387,3.091-3.091C85.952,53.343,84.566,51.957,82.861,51.957z M82.861,55.423c-0.203,0-0.375-0.172-0.375-0.375  c0-0.203,0.172-0.375,0.375-0.375c0.204,0,0.376,0.172,0.376,0.375C83.237,55.251,83.065,55.423,82.861,55.423z M77.868,66.528  v-4.974c0-0.75-0.608-1.358-1.358-1.358h-7.733c-0.75,0-1.358,0.608-1.358,1.358s0.608,1.358,1.358,1.358h6.375v3.617  c-1.025,0.504-1.733,1.556-1.733,2.772c0,1.704,1.387,3.091,3.091,3.091c1.704,0,3.091-1.387,3.091-3.091  C79.601,68.083,78.893,67.031,77.868,66.528z M76.51,69.676c-0.204,0-0.375-0.172-0.375-0.375s0.172-0.375,0.375-0.375  c0.204,0,0.375,0.172,0.375,0.375S76.714,69.676,76.51,69.676z M27.223,47.184h-6.375v-3.616c1.025-0.504,1.733-1.556,1.733-2.773  c0-1.704-1.387-3.091-3.091-3.091c-1.704,0-3.091,1.387-3.091,3.091c0,1.217,0.709,2.269,1.733,2.773v4.974  c0,0.75,0.608,1.358,1.358,1.358h7.733c0.75,0,1.358-0.608,1.358-1.358S27.972,47.184,27.223,47.184z M19.49,40.42  c0.203,0,0.375,0.172,0.375,0.375c0,0.204-0.172,0.376-0.375,0.376c-0.204,0-0.376-0.172-0.376-0.376  C19.114,40.591,19.286,40.42,19.49,40.42z M27.223,60.195H19.49c-0.75,0-1.358,0.608-1.358,1.358v4.974  c-1.025,0.504-1.733,1.556-1.733,2.772c0,1.704,1.387,3.091,3.091,3.091c1.704,0,3.091-1.387,3.091-3.091  c0-1.217-0.709-2.269-1.733-2.773v-3.617h6.375c0.75,0,1.358-0.608,1.358-1.358S27.972,60.195,27.223,60.195z M19.49,69.676  c-0.204,0-0.376-0.172-0.376-0.375s0.172-0.375,0.376-0.375c0.203,0,0.375,0.172,0.375,0.375S19.693,69.676,19.49,69.676z   M27.223,53.69H15.911c-0.504-1.025-1.556-1.733-2.772-1.733c-1.704,0-3.091,1.387-3.091,3.091c0,1.704,1.387,3.091,3.091,3.091  c1.217,0,2.269-0.709,2.772-1.733h11.312c0.75,0,1.358-0.608,1.358-1.358S27.972,53.69,27.223,53.69z M13.139,55.423  c-0.204,0-0.375-0.172-0.375-0.375c0-0.203,0.172-0.375,0.375-0.375c0.203,0,0.375,0.172,0.375,0.375c0,0,0,0,0,0.001s0,0,0,0.001  C13.514,55.251,13.342,55.423,13.139,55.423z M49.358,87.136v-6.909c0-0.75-0.608-1.358-1.358-1.358s-1.358,0.608-1.358,1.358v6.909  c-1.025,0.504-1.733,1.556-1.733,2.772C44.909,91.613,46.296,93,48,93c1.704,0,3.091-1.387,3.091-3.091  C51.091,88.692,50.382,87.64,49.358,87.136z M48,90.284c-0.203,0-0.375-0.172-0.375-0.375s0.172-0.375,0.375-0.375  c0.204,0,0.376,0.172,0.376,0.375S48.203,90.284,48,90.284z M66.794,37.583c-0.75,0-1.358-0.608-1.358-1.358  c0-0.75,0.608-1.358,1.358-1.358c4.581,0,8.308-3.727,8.308-8.308s-3.727-8.308-8.308-8.308h-1.845c-0.595,0-1.12-0.387-1.296-0.955  c-1.113-3.581-4.384-5.987-8.138-5.987c-1.758,0-3.446,0.531-4.881,1.536c-0.364,0.255-0.83,0.316-1.247,0.162  c-0.417-0.153-0.733-0.501-0.845-0.931c-0.977-3.746-4.368-6.361-8.244-6.361c-4.698,0-8.52,3.822-8.52,8.52  c0,0.779,0.105,1.55,0.312,2.293c0.114,0.409,0.03,0.848-0.227,1.186c-0.257,0.338-0.657,0.537-1.081,0.537h-1.576  c-4.581,0-8.308,3.727-8.308,8.308s3.727,8.308,8.308,8.308c0.75,0,1.358,0.608,1.358,1.358c0,0.75-0.608,1.358-1.358,1.358  c-6.078,0-11.023-4.945-11.023-11.023c0-6.055,4.908-10.986,10.954-11.023c-0.05-0.431-0.075-0.865-0.075-1.301  C29.062,8.041,34.102,3,40.298,3c4.516,0,8.531,2.693,10.295,6.727c1.524-0.745,3.197-1.133,4.922-1.133  c4.608,0,8.664,2.75,10.387,6.941h0.892c6.078,0,11.023,4.945,11.023,11.023S72.872,37.583,66.794,37.583z"/></svg>