<svg xmlns="http://www.w3.org/2000/svg" data-name="Layer 1" viewBox="0 0 95 118.75" x="0px" y="0px"><defs><style>.cls-1{fill-rule:evenodd;}</style></defs><title>a</title><path class="cls-1" d="M87.939,45.2a2.453,2.453,0,1,1,2.454-2.452A2.457,2.457,0,0,1,87.939,45.2Zm-6.493,7.029a4.567,4.567,0,0,0-1.243-.173,4.514,4.514,0,0,0-2.811.978l-8.035-6.38a4.572,4.572,0,0,0,.431-1.934,4.513,4.513,0,0,0-.555-2.181L80.087,32.8a4.512,4.512,0,0,0,2.595.814,4.73,4.73,0,0,0,.605-.041l2.073,5.417a4.566,4.566,0,0,0-.5,7.125l-3.409,6.121ZM80.2,59.073a2.453,2.453,0,1,1,2.454-2.453A2.45,2.45,0,0,1,80.2,59.073ZM67.624,82.3a2.37,2.37,0,0,1-2.322,2.84H59.266a2.331,2.331,0,0,1-2.3-1.826A42.471,42.471,0,0,0,55.468,78.4a4.56,4.56,0,0,0-2.736-8.208h-.05l-1.55-6.215a4.384,4.384,0,0,0,.953-.659l8.367,5.788a4.559,4.559,0,0,0,5.116,6.136A43.261,43.261,0,0,1,67.624,82.3ZM50.277,74.753A2.455,2.455,0,1,0,52.732,72.3a2.458,2.458,0,0,0-2.455,2.453ZM46.588,59.927a2.45,2.45,0,1,1,2.446,2.453,2.451,2.451,0,0,1-2.446-2.453ZM35.535,50.746a2.453,2.453,0,1,1,2.454-2.452,2.457,2.457,0,0,1-2.454,2.452Zm-12.9,1.477a4.612,4.612,0,0,0-1.509-1.375l2.28-8.019c.066,0,.133.005.207.005a4.525,4.525,0,0,0,2.712-.9l5.141,4.314a4.479,4.479,0,0,0-.489,2.047,4.088,4.088,0,0,0,.049.638l-8.391,3.291Zm-3.74,5.056a2.453,2.453,0,1,1,2.446-2.453,2.458,2.458,0,0,1-2.446,2.453ZM7.061,47.35A2.453,2.453,0,1,1,9.515,44.9,2.457,2.457,0,0,1,7.061,47.35Zm5.257-14.326-2.8,8.032a4.565,4.565,0,0,1,1.625,5.886l5.033,4.224a4.519,4.519,0,0,1,2.72-.9c.067,0,.133,0,.2,0l2.289-8.02a4.552,4.552,0,0,1-1.775-6.17l-4.245-3.837a4.52,4.52,0,0,1-2.579.8c-.157,0-.315-.008-.464-.023Zm.464-6.991a2.453,2.453,0,1,1-2.454,2.452,2.45,2.45,0,0,1,2.454-2.452ZM36.248,15.515a4.549,4.549,0,0,0,1.633,1.064L36.538,26.807a4.562,4.562,0,0,0-4.087,4.537,4.406,4.406,0,0,0,.132,1.1L27.061,35.3a4.548,4.548,0,0,0-6.037-.784l-4.245-3.836a4.511,4.511,0,0,0,.34-3.588L36.248,15.515ZM39.5,9.864a2.453,2.453,0,1,1-2.454,2.452A2.457,2.457,0,0,1,39.5,9.864Zm4.262,4.079a4.579,4.579,0,0,1-3.789,2.911L38.628,27.082a4.586,4.586,0,0,1,2.877,3.481l9.1.557a4.575,4.575,0,0,1,4.37-3.237A4.509,4.509,0,0,1,57,28.365l7.944-9.485a4.59,4.59,0,0,1-.887-2.259l-20.3-2.678ZM68.6,13.7a2.453,2.453,0,1,1-2.454,2.453A2.451,2.451,0,0,1,68.6,13.7Zm-.779,27.27,10.846-9.745a4.54,4.54,0,0,1,.025-4.4l-7.538-6.9a4.538,4.538,0,0,1-4.593.3l-7.944,9.483a4.533,4.533,0,0,1,0,5.454l4.569,5.469a4.55,4.55,0,0,1,4.635.332Zm-.141,3.749a2.455,2.455,0,1,1-2.454-2.453,2.457,2.457,0,0,1,2.454,2.453ZM57.417,32.445a2.451,2.451,0,1,1-2.446-2.454,2.451,2.451,0,0,1,2.446,2.454ZM37.674,35.858l-.7,8.106a4.52,4.52,0,0,1,1.334.708l12.554-10.24a4.615,4.615,0,0,1-.39-1.206l-9.1-.557a4.574,4.574,0,0,1-3.7,3.189Zm-.663-6.966a2.453,2.453,0,1,0,2.454,2.452,2.458,2.458,0,0,0-2.454-2.452Zm-13.4,11.832a2.453,2.453,0,1,1,2.446-2.453,2.452,2.452,0,0,1-2.446,2.453Zm9.2,3.908a4.564,4.564,0,0,1,2.057-.851l.7-8.107a4.535,4.535,0,0,1-2.023-1.356l-5.522,2.853a4.387,4.387,0,0,1,.141,1.1,4.6,4.6,0,0,1-.489,2.047l5.132,4.314Zm13.549,11.6L39.59,50.391a4.578,4.578,0,0,0,.5-2.1,4.45,4.45,0,0,0-.456-1.989l12.554-10.24a4.554,4.554,0,0,0,4.809.46l4.569,5.469a4.557,4.557,0,0,0-.3,4.995l-9.727,9.132a4.546,4.546,0,0,0-5.182.112ZM64.7,73.216a2.453,2.453,0,1,0-2.446-2.452A2.451,2.451,0,0,0,64.7,73.216ZM76.214,58.831a4.528,4.528,0,0,1-.572-2.211,4.584,4.584,0,0,1,.431-1.934l-8.026-6.38a4.551,4.551,0,0,1-5.332.221l-9.726,9.132a4.485,4.485,0,0,1,.614,2.268,4.59,4.59,0,0,1-.315,1.658l8.366,5.787A4.548,4.548,0,0,1,67.268,67l8.946-8.164Zm6.468-32.237a2.453,2.453,0,1,1-2.454,2.453,2.457,2.457,0,0,1,2.454-2.453Zm5.257,11.594a4.465,4.465,0,0,0-.6.041L85.252,32.81a4.56,4.56,0,0,0-5.132-7.538l-7.538-6.9a4.465,4.465,0,0,0,.581-2.218A4.561,4.561,0,0,0,64.34,14.53L44.034,11.851a4.56,4.56,0,1,0-8.88,1.86L16.024,25.286a4.558,4.558,0,1,0-5.7,7.041l-2.8,8.032c-.149-.015-.307-.024-.464-.024a4.563,4.563,0,1,0,2.72,8.223l5.033,4.223a4.562,4.562,0,1,0,8.64,2.045,4.113,4.113,0,0,0-.05-.64L31.8,50.9a4.557,4.557,0,0,0,6.418,1.092l6.775,5.842a4.555,4.555,0,0,0,4.046,6.659h.05l1.55,6.215a4.562,4.562,0,0,0,2.1,8.612,4.668,4.668,0,0,0,.8-.072A39.486,39.486,0,0,1,54.9,83.8a4.465,4.465,0,0,0,4.362,3.451H65.3a4.476,4.476,0,0,0,4.387-5.367,45.245,45.245,0,0,0-2.2-7.509,4.533,4.533,0,0,0,1.194-5.818l8.956-8.163a4.559,4.559,0,0,0,5.646-7.13L86.7,47.14a4.562,4.562,0,1,0,1.244-8.952Z"/></svg>