<svg xmlns="http://www.w3.org/2000/svg" version="1.1" viewBox="-5.0 -10.0 110.0 135.0">
 <path d="m93.75 49.996c0.007812-2.5586-1.4883-4.8828-3.8203-5.9414l-76.32-34.895c-2.0078-0.89453-4.3594-0.42578-5.8711 1.168-1.5156 1.5898-1.8594 3.9648-0.86719 5.9219l15.555 29.879c1.2383 2.4297 1.2383 5.3086 0 7.7383l-15.555 29.875c-0.99219 1.9609-0.64453 4.332 0.86719 5.9219 1.5156 1.5938 3.8633 2.0625 5.8711 1.1719l76.32-34.898c2.332-1.0547 3.8281-3.3789 3.8203-5.9414zm-84.109-35.188c-0.41406-0.77734-0.28516-1.7305 0.32031-2.3672 0.60547-0.64062 1.5547-0.81641 2.3477-0.44141l76.32 34.898c0.69141 0.31641 1.2539 0.85547 1.5938 1.5352h-63.844c0.89844-1.1211-16.039-31.797-16.738-33.625zm78.988 38.289-76.32 34.898c-0.79297 0.36328-1.7344 0.17969-2.3359-0.45312-0.60156-0.63672-0.73438-1.582-0.33203-2.3555l15.555-29.879c0.60547-1.1719 1.0078-2.4414 1.1836-3.75h63.844c-0.33984 0.67969-0.90234 1.2227-1.5938 1.5391z"/>
</svg>