<svg xmlns="http://www.w3.org/2000/svg" xmlns:xlink="http://www.w3.org/1999/xlink" version="1.1" x="0px" y="0px" viewBox="0 0 48 60" enable-background="new 0 0 48 48" xml:space="preserve"><g><g><path d="M3,6C1.346,6,0,4.654,0,3s1.346-3,3-3s3,1.346,3,3S4.654,6,3,6z M3,2C2.448,2,2,2.449,2,3s0.448,1,1,1s1-0.449,1-1    S3.552,2,3,2z"/></g><g><path d="M3,21c-1.654,0-3-1.346-3-3s1.346-3,3-3s3,1.346,3,3S4.654,21,3,21z M3,17c-0.552,0-1,0.449-1,1s0.448,1,1,1s1-0.449,1-1    S3.552,17,3,17z"/></g><g><path d="M3,11c-0.553,0-1-0.448-1-1V5c0-0.552,0.447-1,1-1s1,0.448,1,1v5C4,10.552,3.553,11,3,11z"/></g><g><path d="M3,36c-1.654,0-3-1.346-3-3s1.346-3,3-3s3,1.346,3,3S4.654,36,3,36z M3,32c-0.552,0-1,0.448-1,1s0.448,1,1,1s1-0.448,1-1    S3.552,32,3,32z"/></g><g><path d="M3,32c-0.553,0-1-0.447-1-1v-5c0-0.553,0.447-1,1-1s1,0.447,1,1v5C4,31.553,3.553,32,3,32z"/></g><g><path d="M38,36H10c-1.103,0-2-0.897-2-2V2c0-1.103,0.897-2,2-2h28c1.103,0,2,0.897,2,2v32C40,35.103,39.103,36,38,36z M10,2v32    h28.002L38,2H10z"/></g><g><path d="M9,19H5c-0.553,0-1-0.448-1-1s0.447-1,1-1h4c0.553,0,1,0.448,1,1S9.553,19,9,19z"/></g><g><path d="M9,27H3c-0.553,0-1-0.447-1-1s0.447-1,1-1h6c0.553,0,1,0.447,1,1S9.553,27,9,27z"/></g><g><path d="M9,11H3c-0.553,0-1-0.448-1-1s0.447-1,1-1h6c0.553,0,1,0.448,1,1S9.553,11,9,11z"/></g><g><path d="M45,6c-1.654,0-3-1.346-3-3s1.346-3,3-3s3,1.346,3,3S46.654,6,45,6z M45,2c-0.552,0-1,0.449-1,1s0.448,1,1,1s1-0.449,1-1    S45.552,2,45,2z"/></g><g><path d="M45,21c-1.654,0-3-1.346-3-3s1.346-3,3-3s3,1.346,3,3S46.654,21,45,21z M45,17c-0.552,0-1,0.449-1,1s0.448,1,1,1    s1-0.449,1-1S45.552,17,45,17z"/></g><g><path d="M45,11c-0.553,0-1-0.448-1-1V5c0-0.552,0.447-1,1-1s1,0.448,1,1v5C46,10.552,45.553,11,45,11z"/></g><g><path d="M45,36c-1.654,0-3-1.346-3-3s1.346-3,3-3s3,1.346,3,3S46.654,36,45,36z M45,32c-0.552,0-1,0.448-1,1s0.448,1,1,1    s1-0.448,1-1S45.552,32,45,32z"/></g><g><path d="M45,32c-0.553,0-1-0.447-1-1v-5c0-0.553,0.447-1,1-1s1,0.447,1,1v5C46,31.553,45.553,32,45,32z"/></g><g><path d="M43,19h-4c-0.553,0-1-0.448-1-1s0.447-1,1-1h4c0.553,0,1,0.448,1,1S43.553,19,43,19z"/></g><g><path d="M45,27h-6c-0.553,0-1-0.447-1-1s0.447-1,1-1h6c0.553,0,1,0.447,1,1S45.553,27,45,27z"/></g><g><path d="M45,11h-6c-0.553,0-1-0.448-1-1s0.447-1,1-1h6c0.553,0,1,0.448,1,1S45.553,11,45,11z"/></g><g><path d="M29.999,48H18c-0.553,0-1-0.447-1-1s0.447-1,1-1h11.999c0.553,0,1,0.447,1,1S30.552,48,29.999,48z"/></g><g><path d="M29,48H19V34h10V48z M21,46h6V36h-6V46z"/></g><g><path d="M13,19c-0.256,0-0.512-0.098-0.707-0.293c-0.391-0.391-0.391-1.023,0-1.414l4-4c0.391-0.391,1.023-0.391,1.414,0    s0.391,1.023,0,1.414l-4,4C13.512,18.902,13.256,19,13,19z"/></g><g><path d="M17,23c-0.256,0-0.512-0.098-0.707-0.293l-4-4c-0.391-0.391-0.391-1.023,0-1.414s1.023-0.391,1.414,0l4,4    c0.391,0.391,0.391,1.023,0,1.414C17.512,22.902,17.256,23,17,23z"/></g><g><path d="M31,23c-0.256,0-0.512-0.098-0.707-0.293c-0.391-0.391-0.391-1.023,0-1.414l4-4c0.391-0.391,1.023-0.391,1.414,0    s0.391,1.023,0,1.414l-4,4C31.512,22.902,31.256,23,31,23z"/></g><g><path d="M35,19c-0.256,0-0.512-0.098-0.707-0.293l-4-4c-0.391-0.391-0.391-1.023,0-1.414s1.023-0.391,1.414,0l4,4    c0.391,0.391,0.391,1.023,0,1.414C35.512,18.902,35.256,19,35,19z"/></g><g><path d="M20.999,23c-0.209,0-0.419-0.065-0.599-0.2c-0.442-0.331-0.532-0.958-0.2-1.4l6-8c0.331-0.441,0.959-0.532,1.399-0.2    c0.442,0.331,0.532,0.958,0.2,1.4l-6,8C21.604,22.862,21.304,23,20.999,23z"/></g></g><g><rect fill="none" width="48" height="48"/></g></svg>