<svg xmlns="http://www.w3.org/2000/svg" data-name="Layer 1" viewBox="0 0 96 120" x="0px" y="0px"><path d="M83.9,19.15H66.52a4.58,4.58,0,0,0-1-1.9l6.12-6.12h8.19a5,5,0,1,0,0-2.64H71.09a1.34,1.34,0,0,0-.93.38l-6.51,6.51a4.65,4.65,0,0,0-6.34.21l-1.22,1.22a18.59,18.59,0,0,0-2.68-1.14V14a4.67,4.67,0,0,0-4.67-4.67h-2A4.67,4.67,0,0,0,42.1,14v1.69a18.59,18.59,0,0,0-2.68,1.14L38.2,15.59a4.66,4.66,0,0,0-5.52-.78L26.05,8.17a1.34,1.34,0,0,0-.93-.38H16.37a5,5,0,1,0,0,2.64h8.2l6.09,6.09L30.2,17A4.52,4.52,0,0,0,29,19.15h-17a5.55,5.55,0,0,0-5.55,5.54V68.31a5.55,5.55,0,0,0,5.55,5.54H40.83v9H30.51a3.6,3.6,0,0,0-3.6,3.6v4.12a1.32,1.32,0,0,0,1.32,1.32H67.61a1.33,1.33,0,0,0,1.32-1.32V86.44a3.61,3.61,0,0,0-3.6-3.6H55v-9H83.9a5.54,5.54,0,0,0,5.54-5.54V24.69A5.54,5.54,0,0,0,83.9,19.15Zm.72-11.69a2.35,2.35,0,1,1-2.35,2.35A2.35,2.35,0,0,1,84.62,7.46Zm-73,4a2.35,2.35,0,1,1,2.34-2.34A2.35,2.35,0,0,1,11.59,11.45Zm24.74,6,1.93,1.92a1.32,1.32,0,0,0,1.61.2,15.49,15.49,0,0,1,3.89-1.65,1.34,1.34,0,0,0,1-1.28V14a2,2,0,0,1,2-2h2a2,2,0,0,1,2,2v2.67a1.33,1.33,0,0,0,1,1.28,15.27,15.27,0,0,1,3.88,1.65,1.33,1.33,0,0,0,1.62-.2l1.92-1.92a2,2,0,0,1,2.87,0l1.4,1.4a2,2,0,0,1,.6,1.43,2,2,0,0,1-.6,1.44l-2,2a1.35,1.35,0,0,0-.21,1.59,15.45,15.45,0,0,1,1.54,3.82,1.33,1.33,0,0,0,1.28,1h2.88a2,2,0,0,1,2,2v2a2,2,0,0,1-2,2H64a1.33,1.33,0,0,0-1.28,1A15.45,15.45,0,0,1,61.22,41a1.33,1.33,0,0,0,.21,1.59l2,2a2,2,0,0,1,0,2.87L62,48.84a2,2,0,0,1-2.87,0l-1.92-1.93a1.32,1.32,0,0,0-1.61-.2,15.13,15.13,0,0,1-3.89,1.65,1.33,1.33,0,0,0-1,1.28v2.68a2,2,0,0,1-2,2h-2a2,2,0,0,1-2-2V49.64a1.34,1.34,0,0,0-1-1.28,15.13,15.13,0,0,1-3.89-1.65,1.26,1.26,0,0,0-.67-.19,1.31,1.31,0,0,0-.94.39l-1.93,1.93a2,2,0,0,1-2.87,0l-1.4-1.4a2,2,0,0,1,0-2.87l2-2A1.33,1.33,0,0,0,34.29,41a15.45,15.45,0,0,1-1.54-3.82,1.33,1.33,0,0,0-1.28-1H28.58a2,2,0,0,1-2-2v-2a2,2,0,0,1,2-2h2.89a1.33,1.33,0,0,0,1.28-1,15.45,15.45,0,0,1,1.54-3.82,1.33,1.33,0,0,0-.22-1.59l-2-2a2.05,2.05,0,0,1-.59-1.44,2,2,0,0,1,.59-1.43l1.4-1.4A2,2,0,0,1,36.33,17.46Zm30,69v2.8H29.55v-2.8a1,1,0,0,1,1-1H65.33A1,1,0,0,1,66.29,86.44Zm-13.92-3.6h-8.9v-9h8.9ZM86.8,68.31a2.9,2.9,0,0,1-2.9,2.9h-72A2.9,2.9,0,0,1,9,68.31V24.69a2.9,2.9,0,0,1,2.91-2.9H29.1a4.43,4.43,0,0,0,1.1,1.8l1.32,1.32a18.06,18.06,0,0,0-1,2.58h-1.9A4.65,4.65,0,0,0,24,31.83H17.31A1.32,1.32,0,0,0,16,33.15v11a5,5,0,1,0,2.64,0V34.47H24a4.65,4.65,0,0,0,4.63,4.33h1.9a18.06,18.06,0,0,0,1,2.58L30.2,42.7a4.67,4.67,0,0,0,0,6.6l1.4,1.4a4.67,4.67,0,0,0,6.6,0l1.22-1.22a18.59,18.59,0,0,0,2.68,1.14v11.7h-9a5,5,0,1,0,0,2.64H43.42a1.33,1.33,0,0,0,1.32-1.32V56.5a4.55,4.55,0,0,0,2,.48h2a4.6,4.6,0,0,0,2-.48v7.14A1.32,1.32,0,0,0,52.09,65H62.38a5,5,0,1,0,0-2.64h-9V50.62a18.59,18.59,0,0,0,2.68-1.14l1.22,1.22a4.67,4.67,0,0,0,6.6,0l1.4-1.4a4.67,4.67,0,0,0,0-6.6L64,41.38a18.06,18.06,0,0,0,1-2.58h1.89a4.66,4.66,0,0,0,4.64-4.33h5.32v9.72a5,5,0,1,0,2.64,0v-11a1.32,1.32,0,0,0-1.32-1.32H71.56a4.66,4.66,0,0,0-4.64-4.34H65a18.06,18.06,0,0,0-1-2.58l1.32-1.32a4.43,4.43,0,0,0,1.1-1.8H83.9a2.9,2.9,0,0,1,2.9,2.9ZM17.31,46.63A2.35,2.35,0,1,1,15,49,2.35,2.35,0,0,1,17.31,46.63ZM28.34,66a2.35,2.35,0,1,1,2.35-2.35A2.35,2.35,0,0,1,28.34,66Zm36.48-2.35A2.35,2.35,0,1,1,67.16,66,2.34,2.34,0,0,1,64.82,63.64Zm13.38-17A2.35,2.35,0,1,1,75.85,49,2.34,2.34,0,0,1,78.2,46.63Zm-30.45.52a14,14,0,1,0-14-14A14,14,0,0,0,47.75,47.15Zm0-25.36A11.36,11.36,0,1,1,36.39,33.15,11.37,11.37,0,0,1,47.75,21.79ZM52,35.38,54.54,33,52,30.69a1.32,1.32,0,0,1,1.77-2l3.67,3.33a1.32,1.32,0,0,1,0,1.95l-3.67,3.32a1.32,1.32,0,0,1-.89.35,1.3,1.3,0,0,1-1-.44A1.31,1.31,0,0,1,52,35.38Zm-7.14.32,3.58-6.2a1.32,1.32,0,0,1,2.29,1.32L47.11,37a1.32,1.32,0,0,1-1.81.48A1.32,1.32,0,0,1,44.82,35.7Zm-7.14-2.44a1.35,1.35,0,0,1,.43-1L41.78,29a1.32,1.32,0,0,1,1.77,1.95L41,33.26l2.59,2.34a1.33,1.33,0,0,1,.09,1.87,1.32,1.32,0,0,1-1.86.09l-3.67-3.32A1.35,1.35,0,0,1,37.68,33.26Z"/></svg>